<svg height="24" viewBox="0 0 24 24" width="24" xmlns="http://www.w3.org/2000/svg"><path d="m15.3171203 20h5.1828797c.2761424 0 .5.2238576.5.5s-.2238576.5-.5.5h-17c-.27614237 0-.5-.2238576-.5-.5s.22385763-.5.5-.5h8.4975864l.0016919-.0000052c1.3176631-.0019019 2.5886408-.5168461 3.5362556-1.4644609 1.9526215-1.9526215 1.9526215-5.1184463 0-7.0710678-.3804782-.3804782-.80702-.6868183-1.2616738-.9190203-.0189371-.008078-.0375023-.0173909-.0555783-.0279471-1.6657856-.82458168-3.695528-.6637479-5.21933471.4825013h1.50105291c.2761424 0 .5.2238576.5.5s-.2238576.5-.5.5h-3c-.27614237 0-.5-.2238576-.5-.5v-3c0-.27614237.22385763-.5.5-.5s.5.22385763.5.5v2.0276441c1.46401314-1.31171204 3.4173682-1.77869764 5.2298049-1.40095682-.1457087-.37137561-.2298049-.7610228-.2298049-1.12668728 0-1.65685425 1.3431458-3 3-3h.2928932l-.1464466-.14644661c-.1952621-.19526215-.1952621-.51184463 0-.70710678.1952622-.19526215.5118446-.19526215.7071068 0l1 1c.1952621.19526215.1952621.51184463 0 .70710678l-1 1c-.1952622.19526215-.5118446.19526215-.7071068 0-.1952621-.19526215-.1952621-.51184463 0-.70710678l.1464466-.14644661h-.2928932c-1.1045695 0-2 .8954305-2 2 0 .56129192.3301293 1.27278631.7516956 1.66637738.5369477.27718664 1.0408104.64084732 1.4909451 1.09098192 2.3431457 2.3431458 2.3431457 6.1421356 0 8.4852814-.285739.285739-.5960164.5387047-.9255204.7573593z"/></svg>