<svg viewBox="0 0 512 512" xmlns="http://www.w3.org/2000/svg"><text x="764.05994" y="240.45016"><tspan x="764.05994" y="240.45016"/></text><text transform="scale(4.0128 .2492)" x="387.48553" y="615.72418"/><text x="1345.33" y="160.45016"><tspan x="1345.33" y="160.45016"/></text><text transform="scale(4.0128 .2492)" x="532.33484" y="294.69586"/><text x="273.74991" y="-20.810837"><tspan x="273.74991" y="-20.810837"/></text><text transform="scale(4.0128 .2492)" x="265.29617" y="-432.66043"/><text x="1371.7999" y="-237.27983"><tspan x="1371.7999" y="-237.27983"/></text><text transform="scale(4.0128 .2492)" x="538.93481" y="-1301.326"/><text x="1953.0699" y="-317.28986"><tspan x="1953.0699" y="-317.28986"/></text><text transform="scale(4.0128 .2492)" x="683.78406" y="-1622.3643"/><text x="1563.95" y="-789.68988"><tspan x="1563.95" y="-789.68988"/></text><text transform="scale(4.0128 .2492)" x="586.81451" y="-3518.0144"/><text x="2145.21" y="-869.68988"><tspan x="2145.21" y="-869.68988"/></text><text transform="scale(4.0128 .2492)" x="731.66382" y="-3839.043"/><text x="312.40988" y="545.03015"><tspan x="312.40988" y="545.03015"/></text><text x="764.05994" y="240.45013"><tspan x="764.05994" y="240.45013"/></text><text transform="scale(4.0128 .2492)" x="387.48553" y="615.73529"/><text x="1345.33" y="160.45013"><tspan x="1345.33" y="160.45013"/></text><text transform="scale(4.0128 .2492)" x="532.33484" y="294.69714"/><text x="273.74991" y="-20.809847"><tspan x="273.74991" y="-20.809847"/></text><text transform="scale(4.0128 .2492)" x="265.29617" y="-432.64923"/><text x="1371.7999" y="-237.27985"><tspan x="1371.7999" y="-237.27985"/></text><text transform="scale(4.0128 .2492)" x="538.93481" y="-1301.3248"/><text x="1953.0699" y="-317.27985"><tspan x="1953.0699" y="-317.27985"/></text><text transform="scale(4.0128 .2492)" x="683.78406" y="-1622.3531"/><text x="1563.95" y="-789.67987"><tspan x="1563.95" y="-789.67987"/></text><text transform="scale(4.0128 .2492)" x="586.81451" y="-3518.0034"/><text x="2145.21" y="-869.68988"><tspan x="2145.21" y="-869.68988"/></text><text transform="scale(4.0128 .2492)" x="731.66382" y="-3839.0417"/><text x="312.40988" y="545.03021"><tspan x="312.40988" y="545.03021"/></text><text x="1351.9922" y="138.48407"><tspan x="1351.9922" y="138.48407"/></text><text transform="scale(4.0128 .2492)" x="533.99902" y="206.55257"/><text x="1933.2622" y="58.484062"><tspan x="1933.2622" y="58.484062"/></text><text transform="scale(4.0128 .2492)" x="678.84833" y="-114.4758"/><text x="861.68213" y="-122.77693"><tspan x="861.68213" y="-122.77693"/></text><text transform="scale(4.0128 .2492)" x="411.80963" y="-841.83209"/><text x="1959.7322" y="-339.24594"><tspan x="1959.7322" y="-339.24594"/></text><text transform="scale(4.0128 .2492)" x="685.44824" y="-1710.4977"/><text x="2541.0022" y="-419.25595"><tspan x="2541.0022" y="-419.25595"/></text><text transform="scale(4.0128 .2492)" x="830.29755" y="-2031.536"/><text x="2151.8821" y="-891.65601"><tspan x="2151.8821" y="-891.65601"/></text><text transform="scale(4.0128 .2492)" x="733.328" y="-3927.1863"/><text x="2733.1421" y="-971.65601"><tspan x="2733.1421" y="-971.65601"/></text><text transform="scale(4.0128 .2492)" x="878.17731" y="-4248.2148"/><text x="900.3421" y="443.06406"><tspan x="900.3421" y="443.06406"/></text><text x="764.05994" y="240.45016"><tspan x="764.05994" y="240.45016"/></text><text transform="scale(4.0128 .2492)" x="387.48553" y="615.72418"/><text x="1345.33" y="160.45016"><tspan x="1345.33" y="160.45016"/></text><text transform="scale(4.0128 .2492)" x="532.33484" y="294.69586"/><text x="273.74991" y="-20.810837"><tspan x="273.74991" y="-20.810837"/></text><text transform="scale(4.0128 .2492)" x="265.29617" y="-432.66043"/><text x="1371.7999" y="-237.27983"><tspan x="1371.7999" y="-237.27983"/></text><text transform="scale(4.0128 .2492)" x="538.93481" y="-1301.326"/><text x="1953.0699" y="-317.28986"><tspan x="1953.0699" y="-317.28986"/></text><text transform="scale(4.0128 .2492)" x="683.78406" y="-1622.3643"/><text x="1563.95" y="-789.68988"><tspan x="1563.95" y="-789.68988"/></text><text transform="scale(4.0128 .2492)" x="586.81451" y="-3518.0144"/><text x="2145.21" y="-869.68988"><tspan x="2145.21" y="-869.68988"/></text><text transform="scale(4.0128 .2492)" x="731.66382" y="-3839.043"/><text x="312.40988" y="545.03015"><tspan x="312.40988" y="545.03015"/></text><text x="-843.53326" y="97.263725"><tspan x="-843.53326" y="97.263725"/></text><text transform="scale(4.0128 .2492)" x="-13.128739" y="41.142727"/><text x="-262.26331" y="17.263718"><tspan x="-262.26331" y="17.263718"/></text><text transform="scale(4.0128 .2492)" x="131.72054" y="-279.88565"/><text x="-1333.8433" y="-163.99727"><tspan x="-1333.8433" y="-163.99727"/></text><text transform="scale(4.0128 .2492)" x="-135.31812" y="-1007.2419"/><text x="-235.79332" y="-380.46628"><tspan x="-235.79332" y="-380.46628"/></text><text transform="scale(4.0128 .2492)" x="138.32048" y="-1875.9075"/><text x="345.47665" y="-460.47629"><tspan x="345.47665" y="-460.47629"/></text><text transform="scale(4.0128 .2492)" x="283.16977" y="-2196.9458"/><text x="-43.643269" y="-932.87634"><tspan x="-43.643269" y="-932.87634"/></text><text transform="scale(4.0128 .2492)" x="186.20024" y="-4092.5959"/><text x="537.6167" y="-1012.8763"><tspan x="537.6167" y="-1012.8763"/></text><text transform="scale(4.0128 .2492)" x="331.04956" y="-4413.6245"/><text x="-1295.1833" y="401.84372"><tspan x="-1295.1833" y="401.84372"/></text><text x="-1724.0884" y="-95.230324"><tspan x="-1724.0884" y="-95.230324"/></text><text transform="scale(4.0128 .2492)" x="-111.9175" y="-945.0332"/><text x="-2371.8547" y="-863.18207"><tspan x="-2371.8547" y="-863.18207"/></text><text transform="scale(4.0128 .2492)" x="-273.34106" y="-4026.6975"/><text x="-1665.5137" y="-1018.8139"><tspan x="-1665.5137" y="-1018.8139"/></text><text transform="scale(4.0128 .2492)" x="-97.320663" y="-4651.2222"/><text x="-767.60107" y="192.72136"><tspan x="-767.60107" y="192.72136"/></text><text transform="scale(4.0128 .2492)" x="5.793669" y="424.19708"/><text x="-186.33101" y="112.72135"><tspan x="-186.33101" y="112.72135"/></text><text transform="scale(4.0128 .2492)" x="150.64293" y="103.16872"/><text x="-1257.9111" y="-68.539642"><tspan x="-1257.9111" y="-68.539642"/></text><text transform="scale(4.0128 .2492)" x="-116.3957" y="-624.18762"/><text x="-159.86104" y="-285.00867"><tspan x="-159.86104" y="-285.00867"/></text><text transform="scale(4.0128 .2492)" x="157.24287" y="-1492.8531"/><text x="421.40891" y="-365.01865"><tspan x="421.40891" y="-365.01865"/></text><text transform="scale(4.0128 .2492)" x="302.09219" y="-1813.8915"/><text x="32.288982" y="-837.4187"><tspan x="32.288982" y="-837.4187"/></text><text transform="scale(4.0128 .2492)" x="205.12263" y="-3709.5417"/><text x="613.54895" y="-917.4187"><tspan x="613.54895" y="-917.4187"/></text><text transform="scale(4.0128 .2492)" x="349.97192" y="-4030.5701"/><text x="-1219.2511" y="497.30136"><tspan x="-1219.2511" y="497.30136"/></text><text x="-562.20642" y="695.42023"><tspan x="-562.20642" y="695.42023"/></text><text transform="scale(4.0128 .2492)" x="56.978271" y="2441.4377"/><text x="19.06358" y="615.42023"><tspan x="19.06358" y="615.42023"/></text><text transform="scale(4.0128 .2492)" x="201.82753" y="2120.4094"/><text x="-1052.5165" y="434.15924"><tspan x="-1052.5165" y="434.15924"/></text><text transform="scale(4.0128 .2492)" x="-65.211098" y="1393.0529"/><text x="45.53355" y="217.69026"><tspan x="45.53355" y="217.69026"/></text><text transform="scale(4.0128 .2492)" x="208.42747" y="524.38727"/><text x="626.80359" y="137.68024"><tspan x="626.80359" y="137.68024"/></text><text transform="scale(4.0128 .2492)" x="353.27679" y="203.34898"/><text x="237.68358" y="-334.71979"><tspan x="237.68358" y="-334.71979"/></text><text transform="scale(4.0128 .2492)" x="256.30725" y="-1692.3014"/><text x="818.9436" y="-414.71979"><tspan x="818.9436" y="-414.71979"/></text><text transform="scale(4.0128 .2492)" x="401.15656" y="-2013.3297"/><text x="-1013.8564" y="1000.0002"><tspan x="-1013.8564" y="1000.0002"/></text><text x="-1505.9353" y="617.31848"><tspan x="-1505.9353" y="617.31848"/></text><text transform="scale(4.0128 .2492)" x="-178.20015" y="2128.0295"/><text x="-924.66522" y="537.31848"><tspan x="-924.66522" y="537.31848"/></text><text transform="scale(4.0128 .2492)" x="-33.350876" y="1807.001"/><text x="-1996.2452" y="356.05753"><tspan x="-1996.2452" y="356.05753"/></text><text transform="scale(4.0128 .2492)" x="-300.38953" y="1079.6447"/><text x="-898.19525" y="139.58856"><tspan x="-898.19525" y="139.58856"/></text><text transform="scale(4.0128 .2492)" x="-26.750961" y="210.97914"/><text x="-316.92526" y="59.578552"><tspan x="-316.92526" y="59.578552"/></text><text transform="scale(4.0128 .2492)" x="118.09834" y="-110.05908"/><text x="-706.04523" y="-412.82147"><tspan x="-706.04523" y="-412.82147"/></text><text transform="scale(4.0128 .2492)" x="21.128798" y="-2005.7095"/><text x="-124.78518" y="-492.82147"><tspan x="-124.78518" y="-492.82147"/></text><text transform="scale(4.0128 .2492)" x="165.9781" y="-2326.7378"/><text x="-1957.5853" y="921.8985"><tspan x="-1957.5853" y="921.8985"/></text><text x="-1258.4823" y="692.1637"><tspan x="-1258.4823" y="692.1637"/></text><text transform="scale(4.0128 .2492)" x="-116.53455" y="2428.3699"/><text x="-677.21228" y="612.1637"><tspan x="-677.21228" y="612.1637"/></text><text transform="scale(4.0128 .2492)" x="28.314713" y="2107.3416"/><text x="-1748.7922" y="430.90271"><tspan x="-1748.7922" y="430.90271"/></text><text transform="scale(4.0128 .2492)" x="-238.72394" y="1379.985"/><text x="-650.74231" y="214.43373"><tspan x="-650.74231" y="214.43373"/></text><text transform="scale(4.0128 .2492)" x="34.914658" y="511.31946"/><text x="-69.472313" y="134.42372"><tspan x="-69.472313" y="134.42372"/></text><text transform="scale(4.0128 .2492)" x="179.76393" y="190.28114"/><text x="-458.59232" y="-337.97632"><tspan x="-458.59232" y="-337.97632"/></text><text transform="scale(4.0128 .2492)" x="82.794418" y="-1705.3691"/><text x="122.6677" y="-417.97632"><tspan x="122.6677" y="-417.97632"/></text><text transform="scale(4.0128 .2492)" x="227.64369" y="-2026.3976"/><text x="-1710.1323" y="996.74365"><tspan x="-1710.1323" y="996.74365"/></text><text x="-2124.5232" y="9.907349"><tspan x="-2124.5232" y="9.907349"/></text><text transform="scale(4.0128 .2492)" x="-332.35306" y="-309.40274"/><text x="-1543.2532" y="-70.092651"><tspan x="-1543.2532" y="-70.092651"/></text><text transform="scale(4.0128 .2492)" x="-187.50378" y="-630.43109"/><text x="-2614.8333" y="-251.35365"><tspan x="-2614.8333" y="-251.35365"/></text><text transform="scale(4.0128 .2492)" x="-454.54245" y="-1357.7874"/><text x="-1516.7832" y="-467.82266"><tspan x="-1516.7832" y="-467.82266"/></text><text transform="scale(4.0128 .2492)" x="-180.90384" y="-2226.4529"/><text x="-935.51318" y="-547.8327"><tspan x="-935.51318" y="-547.8327"/></text><text transform="scale(4.0128 .2492)" x="-36.054565" y="-2547.4912"/><text x="-1324.6332" y="-1020.2327"><tspan x="-1324.6332" y="-1020.2327"/></text><text transform="scale(4.0128 .2492)" x="-133.02408" y="-4443.1416"/><text x="-743.37323" y="-1100.2325"><tspan x="-743.37323" y="-1100.2325"/></text><text transform="scale(4.0128 .2492)" x="11.825225" y="-4764.1699"/><text x="-2576.1733" y="314.48734"><tspan x="-2576.1733" y="314.48734"/></text><text x="-3005.0781" y="-182.5867"><tspan x="-3005.0781" y="-182.5867"/></text><text transform="scale(4.0128 .2492)" x="-431.14056" y="-1295.5801"/><text x="-3652.8447" y="-950.53845"><tspan x="-3652.8447" y="-950.53845"/></text><text transform="scale(4.0128 .2492)" x="-592.56415" y="-4377.2441"/><text x="-2946.5034" y="-1106.1702"><tspan x="-2946.5034" y="-1106.1702"/></text><text transform="scale(4.0128 .2492)" x="-416.54373" y="-5001.769"/><text x="-2473.8115" y="179.12769"><tspan x="-2473.8115" y="179.12769"/></text><text transform="scale(4.0128 .2492)" x="-419.39612" y="369.64807"/><text x="-1892.5414" y="99.127693"><tspan x="-1892.5414" y="99.127693"/></text><text transform="scale(4.0128 .2492)" x="-274.54684" y="48.619778"/><text x="-2964.1213" y="-82.133308"><tspan x="-2964.1213" y="-82.133308"/></text><text transform="scale(4.0128 .2492)" x="-541.58551" y="-678.73657"/><text x="-1866.0714" y="-298.60233"><tspan x="-1866.0714" y="-298.60233"/></text><text transform="scale(4.0128 .2492)" x="-267.94693" y="-1547.4021"/><text x="-1284.8014" y="-378.61234"><tspan x="-1284.8014" y="-378.61234"/></text><text transform="scale(4.0128 .2492)" x="-123.09763" y="-1868.4403"/><text x="-1673.9214" y="-851.01239"><tspan x="-1673.9214" y="-851.01239"/></text><text transform="scale(4.0128 .2492)" x="-220.06714" y="-3764.0906"/><text x="-1092.6614" y="-931.01239"><tspan x="-1092.6614" y="-931.01239"/></text><text transform="scale(4.0128 .2492)" x="-75.217865" y="-4085.1189"/><text x="-2925.4614" y="483.70767"><tspan x="-2925.4614" y="483.70767"/></text><text x="764.05377" y="240.4323"><tspan x="764.05377" y="240.4323"/></text><text transform="scale(4.0128 .2492)" x="387.49582" y="615.73248"/><text x="1345.3333" y="160.44568"><tspan x="1345.3333" y="160.44568"/></text><text transform="scale(4.0128 .2492)" x="532.34552" y="294.69278"/><text x="273.73093" y="-20.812193"><tspan x="273.73093" y="-20.812193"/></text><text transform="scale(4.0128 .2492)" x="265.28778" y="-432.65579"/><text x="1371.8018" y="-237.27635"><tspan x="1371.8018" y="-237.27635"/></text><text transform="scale(4.0128 .2492)" x="538.93597" y="-1301.3285"/><text x="1953.0813" y="-317.28424"><tspan x="1953.0813" y="-317.28424"/></text><text transform="scale(4.0128 .2492)" x="683.78564" y="-1622.3505"/><text x="1563.9553" y="-789.67792"><tspan x="1563.9553" y="-789.67792"/></text><text transform="scale(4.0128 .2492)" x="586.80585" y="-3518.0098"/><text x="2145.1995" y="-869.68579"><tspan x="2145.1995" y="-869.68579"/></text><text transform="scale(4.0128 .2492)" x="731.65552" y="-3839.032"/><text x="312.3884" y="545.01495"><tspan x="312.3884" y="545.01495"/></text><text x="729.64001" y="231.35997"><tspan x="729.64001" y="231.35997"/></text><text transform="scale(4.0128 .2492)" x="378.90805" y="579.25812"/><text x="1310.91" y="151.35997"><tspan x="1310.91" y="151.35997"/></text><text transform="scale(4.0128 .2492)" x="523.75732" y="258.21997"/><text x="239.33" y="-29.900009"><tspan x="239.33" y="-29.900009"/></text><text transform="scale(4.0128 .2492)" x="256.71869" y="-469.1264"/><text x="1337.38" y="-246.37001"><tspan x="1337.38" y="-246.37001"/></text><text transform="scale(4.0128 .2492)" x="530.3573" y="-1337.802"/><text x="1918.65" y="-326.37"><tspan x="1918.65" y="-326.37"/></text><text transform="scale(4.0128 .2492)" x="675.20654" y="-1658.8303"/><text x="1529.53" y="-798.77002"><tspan x="1529.53" y="-798.77002"/></text><text transform="scale(4.0128 .2492)" x="578.237" y="-3554.4807"/><text x="2110.79" y="-878.78003"><tspan x="2110.79" y="-878.78003"/></text><text transform="scale(4.0128 .2492)" x="723.0863" y="-3875.519"/><text x="277.98999" y="535.94006"><tspan x="277.98999" y="535.94006"/></text><text x="729.64001" y="231.35997"><tspan x="729.64001" y="231.35997"/></text><text transform="scale(4.0128 .2492)" x="378.90805" y="579.25812"/><text x="1310.91" y="151.35997"><tspan x="1310.91" y="151.35997"/></text><text transform="scale(4.0128 .2492)" x="523.75732" y="258.21997"/><text x="239.33" y="-29.900009"><tspan x="239.33" y="-29.900009"/></text><text transform="scale(4.0128 .2492)" x="256.71869" y="-469.1264"/><text x="1337.38" y="-246.37001"><tspan x="1337.38" y="-246.37001"/></text><text transform="scale(4.0128 .2492)" x="530.3573" y="-1337.802"/><text x="1918.65" y="-326.37"><tspan x="1918.65" y="-326.37"/></text><text transform="scale(4.0128 .2492)" x="675.20654" y="-1658.8303"/><text x="1529.53" y="-798.77002"><tspan x="1529.53" y="-798.77002"/></text><text transform="scale(4.0128 .2492)" x="578.237" y="-3554.4807"/><text x="2110.79" y="-878.78003"><tspan x="2110.79" y="-878.78003"/></text><text transform="scale(4.0128 .2492)" x="723.0863" y="-3875.519"/><text x="277.98999" y="535.94006"><tspan x="277.98999" y="535.94006"/></text><g fill-rule="evenodd"><path d="m471.95 253.05c0 120.9-98.006 218.91-218.91 218.91s-218.91-98.006-218.91-218.91 98.006-218.91 218.91-218.91 218.91 98.006 218.91 218.91" fill="#ec513d"/><path d="m256 1c-140.83 0-255 114.17-255 255s114.17 255 255 255 255-114.17 255-255-114.17-255-255-255m8.827 44.931c120.9 0 218.9 98 218.9 218.9s-98 218.9-218.9 218.9-218.93-98-218.93-218.9 98.03-218.9 218.93-218.9" fill-opacity=".067"/><path d="m256 4.43c-138.94 0-251.57 112.63-251.57 251.57s112.63 251.57 251.57 251.57 251.57-112.63 251.57-251.57-112.63-251.57-251.57-251.57m5.885 38.556c120.9 0 218.9 98 218.9 218.9s-98 218.9-218.9 218.9-218.93-98-218.93-218.9 98.03-218.9 218.93-218.9" fill-opacity=".129"/><path d="m256 8.36c-136.77 0-247.64 110.87-247.64 247.64s110.87 247.64 247.64 247.64 247.64-110.87 247.64-247.64-110.87-247.64-247.64-247.64m2.942 31.691c120.9 0 218.9 98 218.9 218.9s-98 218.9-218.9 218.9-218.93-98-218.93-218.9 98.03-218.9 218.93-218.9" fill-opacity=".129"/><path d="m253.04 7.86c-135.42 0-245.19 109.78-245.19 245.19 0 135.42 109.78 245.19 245.19 245.19 135.42 0 245.19-109.78 245.19-245.19 0-135.42-109.78-245.19-245.19-245.19zm0 26.297c120.9 0 218.9 98 218.9 218.9s-98 218.9-218.9 218.9-218.93-98-218.93-218.9 98.03-218.9 218.93-218.9z" fill="#fff" stroke="#000" stroke-opacity=".31" stroke-width="4.904"/></g><text x="729.64001" y="231.35997"><tspan x="729.64001" y="231.35997"/></text><text transform="scale(4.0128 .2492)" x="378.90805" y="579.25812"/><text x="1310.91" y="151.35997"><tspan x="1310.91" y="151.35997"/></text><text transform="scale(4.0128 .2492)" x="523.75732" y="258.21997"/><text x="239.33" y="-29.900009"><tspan x="239.33" y="-29.900009"/></text><text transform="scale(4.0128 .2492)" x="256.71869" y="-469.1264"/><text x="1337.38" y="-246.37001"><tspan x="1337.38" y="-246.37001"/></text><text transform="scale(4.0128 .2492)" x="530.3573" y="-1337.802"/><text x="1918.65" y="-326.37"><tspan x="1918.65" y="-326.37"/></text><text transform="scale(4.0128 .2492)" x="675.20654" y="-1658.8303"/><text x="1529.53" y="-798.77002"><tspan x="1529.53" y="-798.77002"/></text><text transform="scale(4.0128 .2492)" x="578.237" y="-3554.4807"/><text x="2110.79" y="-878.78003"><tspan x="2110.79" y="-878.78003"/></text><text transform="scale(4.0128 .2492)" x="723.0863" y="-3875.519"/><text x="277.98999" y="535.94006"><tspan x="277.98999" y="535.94006"/></text><path d="m255.69 102.19c-5.07 0-10.14 1.93-14.01 5.8l-27.89 27.89 35.38 35.38 29.84 29.84c-.02.05-.03.11-.05.16l34.1 34.1 29.97 29.96c-1.13 3.28-3 6.35-5.61 8.96-2.24 2.24-4.81 3.93-7.56 5.08l-129.77-129.78-92.1 92.1c-7.74 7.74-7.74 20.28 0 28.02l196.22 196.23c79.8-19.11 142.61-81.92 161.71-161.72l-61.91-61.91-134.32-134.31v-.01c-3.87-3.86-8.93-5.8-14-5.79z" opacity=".25"/><path d="m404.01 242.3-134.32-134.31c-7.7289-7.7356-20.275-7.7356-28.014 0l-27.891 27.893 35.38 35.381c8.2248-2.7769 17.652-.91489 24.205 5.6393 6.587 6.5952 8.4358 16.103 5.5889 24.355l34.099 34.098c8.2498-2.8428 17.768-1.0062 24.355 5.593 9.2097 9.207 9.2097 24.126 0 33.336-9.211 9.2126-24.13 9.2126-33.345 0-6.925-6.9303-8.6376-17.105-5.1303-25.637l-31.801-31.802-.002 83.686c2.2453 1.1116 4.3643 2.5951 6.2354 4.4579 9.207 9.206 9.207 24.122 0 33.343-9.2098 9.2058-24.135 9.2058-33.336 0-9.2084-9.2205-9.2084-24.137 0-33.343 2.2757-2.2716 4.9088-3.991 7.7186-5.1435v-84.462c-2.8097-1.1486-5.4388-2.856-7.7186-5.1438-6.9749-6.9695-8.6548-17.206-5.0776-25.771l-34.876-34.883-92.098 92.093c-7.7383 7.7422-7.7383 20.288 0 28.025l134.32 134.31c7.733 7.7357 20.275 7.7357 28.018 0l133.68-133.69c7.7356-7.7397 7.7356-20.289 0-28.026" fill="#fff"/></svg>