<svg viewBox="0 0 487.43 434.54" xmlns="http://www.w3.org/2000/svg"><path d="m215.83 379.8h59.17a0 0 0 0 1 0 0v49.35a.72.72 0 0 1 -.72.72h-57.73a.72.72 0 0 1 -.72-.72v-49.35a0 0 0 0 1 0 0z" fill="#5dcbfd"/><path d="m215.83 391.11h59.21v10.89h-59.21z" fill="#4faefd"/><path d="m275.05 433.9a4.5 4.5 0 0 1 -4.5-4.5v-44.92h-50.22v44.92a4.5 4.5 0 0 1 -9 0v-53.92h68.22v53.92a4.51 4.51 0 0 1 -4.5 4.5z" fill="#25252d"/><path d="m199.19 425.54h92.82v9h-92.82z" fill="#25252d"/><path d="m175.74 425.54h11v9h-11z" fill="#25252d"/><path d="m304.48 425.54h12.69v9h-12.69z" fill="#25252d"/><rect fill="#5dcbfd" height="340.67" rx="29.67" width="474.98" x="7.95" y="46"/><path d="m457.84 384.21c-.76.07-1.53.1-2.3.1h-415.63a29.67 29.67 0 0 1 -29.68-29.67l-3.23-286.1c0-17.01 17.34-21.61 17.44-22.54 26.29 10.71 20.56 38.08 35.06 56.71 19 24.3 2.79 75.05-2.57 101.42-8.15 40.13-21.63 82.8-19.46 124.15 2.53 47.72 64.76 56.88 102.53 59.6 49.88 3.58 100.12 1.5 149.73-3.14 54.32-5.07 115.59 4.95 168.11-.53z" fill="#4faefd"/><path d="m41.3 75.04h408.28v247.59h-408.28z" fill="#373635"/><path d="m449.58 75.04h-408.28v17.5h47.23v230.09h17.5v-230.09h343.55z" fill="#21201f" opacity=".5"/><path d="m458.54 391.17h-426.2a28.92 28.92 0 0 1 -28.89-28.89v-291.89a28.92 28.92 0 0 1 28.89-28.89h426.2a28.92 28.92 0 0 1 28.89 28.89v291.89a28.92 28.92 0 0 1 -28.89 28.89zm-426.2-340.67a19.91 19.91 0 0 0 -19.89 19.89v291.89a19.92 19.92 0 0 0 19.89 19.89h426.2a19.92 19.92 0 0 0 19.89-19.89v-291.89a19.91 19.91 0 0 0 -19.89-19.89z" fill="#25252d"/><path d="m245.44 172.59a2.5 2.5 0 0 1 -2.5-2.5v-60.47a2.5 2.5 0 0 1 5 0v60.47a2.5 2.5 0 0 1 -2.5 2.5z" fill="#fff"/><path d="m245.44 201.94a2.49 2.49 0 0 1 -2.5-2.5v-12.7a2.5 2.5 0 0 1 5 0v12.7a2.49 2.49 0 0 1 -2.5 2.5z" fill="#fff"/><path d="m245.44 220.55a2.5 2.5 0 0 1 -2.5-2.5v-3.71a2.5 2.5 0 1 1 5 0v3.71a2.5 2.5 0 0 1 -2.5 2.5z" fill="#fff"/><path d="m462.97 137.14h7v60.47h-7z" fill="#fff"/><path d="m462.8 206.66h7v18.12h-7z" fill="#fff"/><path d="m245.53 159.79a2.5 2.5 0 0 1 -2.5-2.5v-60.47a2.5 2.5 0 0 1 5 0v60.47a2.5 2.5 0 0 1 -2.5 2.5z" fill="#fff"/><path d="m245.35 180a2.5 2.5 0 0 1 -2.5-2.5v-8.12a2.5 2.5 0 0 1 5 0v8.12a2.5 2.5 0 0 1 -2.5 2.5z" fill="#fff"/><path d="m365.39 321.27h-239.21a18.28 18.28 0 0 1 -18.28-18.27l-.68-278.49a18.27 18.27 0 0 1 18.27-18.28h239.21a18.28 18.28 0 0 1 18.3 18.23l.66 278.54a18.27 18.27 0 0 1 -18.27 18.27z" fill="#fff"/><path d="m384.72 318.67h-275.76l-.77-12.47h275.75z" fill="#e1e4fe"/><path d="m382.52 325.77a4.5 4.5 0 0 1 -4.5-4.49l-.74-300.94a9.64 9.64 0 0 0 -9.63-9.61h-247.49a9.63 9.63 0 0 0 -9.63 9.66l.74 300.87a4.51 4.51 0 0 1 -4.49 4.51 4.5 4.5 0 0 1 -4.5-4.49l-.74-300.87a18.64 18.64 0 0 1 18.62-18.68h247.49a18.66 18.66 0 0 1 18.63 18.59l.72 300.94a4.49 4.49 0 0 1 -4.48 4.51z" fill="#25252d"/><path d="m454.08 327.12h-417.28v-256.58h68.37a4.5 4.5 0 0 1 0 9h-59.37v238.58h399.28v-238.58h-62a4.5 4.5 0 0 1 0-9h71z" fill="#25252d"/><circle cx="246.45" cy="351.21" fill="#fff" r="9.15"/><path d="m246.45 363.36a12.15 12.15 0 1 1 12.15-12.15 12.16 12.16 0 0 1 -12.15 12.15zm0-18.3a6.15 6.15 0 1 0 4.61 2.08 6.16 6.16 0 0 0 -4.61-2.08z" fill="#25252d"/><g fill="#fff"><path d="m319.4 83.55h7v24.88h-7z"/><path d="m319.31 116.39h7v11.01h-7z"/><path d="m240.82 81.13h7v24.88h-7z"/><path d="m240.73 113.96h7v11.01h-7z"/><path d="m395.29 338.65h55.47v7h-55.47z" opacity=".5"/><path d="m373.12 338.48h11.12v7h-11.12z" opacity=".5"/><path d="m0 157.52h12.46v12.46h-12.46z"/><path d="m0 182.41h12.46v12.46h-12.46z"/><path d="m0 207.34h12.46v12.46h-12.46z"/><path d="m0 232.26h12.46v12.46h-12.46z"/></g><path d="m384.72 92.54h17.1v228.73h-17.1z" fill="#21201f" opacity=".5"/><path d="m181.34 0h12.46v12.46h-12.46z" fill="#fff"/><path d="m206.27 0h12.46v12.46h-12.46z" fill="#fff"/><path d="m231.19 0h12.46v12.46h-12.46z" fill="#fff"/><path d="m256.12 0h12.46v12.46h-12.46z" fill="#fff"/><path d="m92.75 346.71h88.59v9h-88.59z" fill="#25252d"/><path d="m308.27 170.5c0-2.53.84-5.06.84-8.43s0-5.9-.84-8.42l17.73-14.33a4 4 0 0 0 .85-5l-16.85-29.54a4.72 4.72 0 0 0 -5.06-.85l-21.07 8.43c-4.21-3.37-9.26-5.9-14.32-8.43l-3.41-21.93c.84-2.52-1.69-4.21-3.37-4.21h-33.71c-1.68 0-4.21 1.69-4.21 3.37l-3.37 22.75c-5 1.69-9.27 5.06-14.32 8.43l-20.23-8.43c-2.52-.84-4.21 0-5.89 1.69l-16.86 29.49c-.84.84 0 3.37 1.69 5l17.69 13.49c0 2.52-.84 5-.84 8.42s0 5.9.84 8.43l-17.69 14.32a4 4 0 0 0 -.84 5.06l16.85 29.49a4.71 4.71 0 0 0 5.05.84l21.07-8.35c4.21 3.37 9.27 5.9 14.32 8.42l3.37 21.91c0 1.69 1.69 3.37 4.22 3.37h33.7c1.69 0 4.21-1.68 4.21-3.37l3.38-21.91c5.05-2.52 10.11-5.05 14.32-8.42l21.06 8.42a4.05 4.05 0 0 0 5.06-1.68l16.85-29.53c.85-1.69.85-4.22-.84-5.06zm-62.35 21.06a29.49 29.49 0 1 1 29.49-29.49 29.85 29.85 0 0 1 -29.49 29.49z" fill="#cdcdcf"/><path d="m328.49 190.15-16.86 29.49a4 4 0 0 1 -5.05 1.68l-21.07-8.41c-4.19 3.37-9.27 5.9-14.32 8.41l-3.36 21.94c0 1.68-2.54 3.36-4.22 3.36h-33.71c-2.51 0-4.2-1.68-4.2-3.36l-2.39-15.47a100.46 100.46 0 0 0 76.6-120.79l5-2c2.54-.85 4.22 0 5.05.86l16.84 29.54a3.93 3.93 0 0 1 -.82 5l-17.71 14.32c.85 2.54.85 5.08.85 8.44s-.85 5.91-.85 8.42l19.39 13.49c1.68.86 1.68 3.4.83 5.08z" fill="#b7b7b7"/><path d="m263.61 250h-33.7c-4.65 0-8.46-3.3-8.7-7.44l-3-19.36a84.52 84.52 0 0 1 -10.91-6.29l-19 7.58a9.22 9.22 0 0 1 -9.66-1.93l-.43-.42-4.75-8.31 7.82-4.47 3.82 6.69.25-.06 23.35-9.35 2.05 1.64c3.84 3.07 8.54 5.42 13.51 7.91l2.09 1 .36 2.31 3.3 21.46h33.32.06l3.65-23.73 2.08-1c5-2.5 9.69-4.85 13.53-7.92l2.05-1.64 23.3 9.24 16.42-28.73-21.85-15.24 2.12-4.13a12.46 12.46 0 0 0 -.27-11.92l-1.91-3.33 20.25-16.39-16-28.06-.26.06-23.35 9.34-2.15-1.64c-3.84-3.07-8.54-5.42-13.52-7.91l-2.08-1-3.79-24.61h-32.32-.06l-3.7 25-2.63.87c-3.41 1.14-6.55 3.3-10.18 5.81-1 .69-2 1.39-3.07 2.09l-2 1.34-22.26-9.28a.89.89 0 0 0 -.33-.06 3.1 3.1 0 0 0 -.45.33l-16 28a4.61 4.61 0 0 0 .28.38l20.11 15.32-1.3 3.19c0 .06-2.84 7.31-.08 13.27l1.47 3.18-20 16.19 4.58 8-7.81 4.47-4.86-8.56a8.45 8.45 0 0 1 1.69-10.25l.35-.31 15.22-12.33a28.14 28.14 0 0 1 .09-13.68l-15.66-12a12.11 12.11 0 0 1 -2.88-4.61 6.63 6.63 0 0 1 .65-6.18l17-29.7.42-.43a9.72 9.72 0 0 1 10.51-2.77l.31.12 18 7.49 1-.67a61.05 61.05 0 0 1 9.8-5.91l3-19.94c.29-4.22 4.8-7.44 8.69-7.44h33.71a8.45 8.45 0 0 1 6.64 3.45 7.3 7.3 0 0 1 1.31 5.42l2.75 18.85a85.7 85.7 0 0 1 10.91 6.29l19-7.58a9.22 9.22 0 0 1 9.66 1.93l.42.43 17.27 30.23a8.45 8.45 0 0 1 -1.68 10.25l-.35.32-15.03 12.13a21.34 21.34 0 0 1 .11 14l16.09 11.15c3.82 2.19 4.3 7.29 2.5 10.9l-.12.22-16.81 29.41a8.25 8.25 0 0 1 -4.74 3.91 8.34 8.34 0 0 1 -6.07-.25l-18.56-7.44a85.2 85.2 0 0 1 -10.91 6.29l-3 19.38c-.29 4.21-4.79 7.43-8.68 7.43zm-17.69-53.93c-18.43 0-34-15.56-34-34s15.56-34 34-34 34 15.57 34 34-15.58 33.99-34 33.99zm0-59a25 25 0 1 0 25 25 25.33 25.33 0 0 0 -25-24.99z" fill="#25252d"/><path d="m202.69 157.67-7-.29c0-.3 1.53-30.61 29.32-38.84l2 6.71c-22.93 6.75-24.27 31.37-24.32 32.42z" fill="#fff" opacity=".5"/></svg>